<?xml version="1.0" encoding="UTF-8" standalone="no"?>
<!DOCTYPE svg PUBLIC "-//W3C//DTD SVG 1.1//EN"
 "http://www.w3.org/Graphics/SVG/1.1/DTD/svg11.dtd">
<!-- Generated by graphviz version 2.44.1 (20200629.0846)
 -->
<!-- Pages: 1 -->
<svg width="359pt" height="392pt"
 viewBox="0.00 0.00 359.49 392.00" xmlns="http://www.w3.org/2000/svg" xmlns:xlink="http://www.w3.org/1999/xlink">
<g id="graph0" class="graph" transform="scale(1 1) rotate(0) translate(4 388)">
<!-- &#45;1995962449 -->
<g id="node1" class="node">
<title>&#45;1995962449</title>
<polygon fill="#9b9bff" stroke="black" points="320.99,-297 171.99,-297 171.99,-261 320.99,-261 320.99,-297"/>
<text text-anchor="middle" x="246.49" y="-275.3" font-family="Times New Roman,serif" font-size="14.00">Assign seriousness (52)</text>
</g>
<!-- &#45;1995962449&#45;&gt;&#45;1995962449 -->
<g id="edge1" class="edge">
<title>&#45;1995962449&#45;&gt;&#45;1995962449</title>
<path fill="none" stroke="black" stroke-width="1.3" d="M321.25,-286.07C331.87,-284.92 338.99,-282.57 338.99,-279 338.99,-276.71 336.07,-274.93 331.18,-273.64"/>
<polygon fill="black" stroke="black" stroke-width="1.3" points="331.7,-270.17 321.25,-271.93 330.52,-277.07 331.7,-270.17"/>
<text text-anchor="middle" x="342.49" y="-275.3" font-family="Times New Roman,serif" font-size="14.00">9</text>
</g>
<!-- &#45;843882614 -->
<g id="node4" class="node">
<title>&#45;843882614</title>
<polygon fill="#9b9bff" stroke="black" points="177.49,-210 55.49,-210 55.49,-174 177.49,-174 177.49,-210"/>
<text text-anchor="middle" x="116.49" y="-188.3" font-family="Times New Roman,serif" font-size="14.00">Resolve ticket (52)</text>
</g>
<!-- &#45;1995962449&#45;&gt;&#45;843882614 -->
<g id="edge2" class="edge">
<title>&#45;1995962449&#45;&gt;&#45;843882614</title>
<path fill="none" stroke="black" stroke-width="1.33" d="M220.18,-260.8C200.36,-247.84 172.99,-229.94 151.34,-215.79"/>
<polygon fill="black" stroke="black" stroke-width="1.33" points="153.04,-212.72 142.76,-210.18 149.21,-218.58 153.04,-212.72"/>
<text text-anchor="middle" x="196.49" y="-231.8" font-family="Times New Roman,serif" font-size="14.00">10</text>
</g>
<!-- &#45;277961005 -->
<g id="node5" class="node">
<title>&#45;277961005</title>
<polygon fill="#bfbfff" stroke="black" points="325.49,-123 167.49,-123 167.49,-87 325.49,-87 325.49,-123"/>
<text text-anchor="middle" x="246.49" y="-101.3" font-family="Times New Roman,serif" font-size="14.00">Take in charge ticket (34)</text>
</g>
<!-- &#45;1995962449&#45;&gt;&#45;277961005 -->
<g id="edge3" class="edge">
<title>&#45;1995962449&#45;&gt;&#45;277961005</title>
<path fill="none" stroke="black" stroke-width="2.15" d="M246.49,-260.88C246.49,-231 246.49,-169.11 246.49,-133.27"/>
<polygon fill="black" stroke="black" stroke-width="2.15" points="249.99,-133.05 246.49,-123.05 242.99,-133.05 249.99,-133.05"/>
<text text-anchor="middle" x="253.49" y="-188.3" font-family="Times New Roman,serif" font-size="14.00">32</text>
</g>
<!-- &#45;1546287983 -->
<g id="node6" class="node">
<title>&#45;1546287983</title>
<polygon fill="#eaeaff" stroke="black" points="173.99,-36 104.99,-36 104.99,0 173.99,0 173.99,-36"/>
<text text-anchor="middle" x="139.49" y="-14.3" font-family="Times New Roman,serif" font-size="14.00">Wait (13)</text>
</g>
<!-- &#45;1995962449&#45;&gt;&#45;1546287983 -->
<g id="edge4" class="edge">
<title>&#45;1995962449&#45;&gt;&#45;1546287983</title>
<path fill="none" stroke="black" d="M265.84,-260.79C302.71,-225.89 375.82,-145.19 334.49,-87 300.52,-39.17 230.31,-24.7 184.07,-20.49"/>
<polygon fill="black" stroke="black" points="184.25,-16.99 174.01,-19.7 183.71,-23.97 184.25,-16.99"/>
<text text-anchor="middle" x="347.99" y="-144.8" font-family="Times New Roman,serif" font-size="14.00">1</text>
</g>
<!-- 2115092379 -->
<g id="node2" class="node">
<title>2115092379</title>
<polygon fill="#ababff" stroke="black" points="148.99,-123 65.99,-123 65.99,-87 148.99,-87 148.99,-123"/>
<text text-anchor="middle" x="107.49" y="-101.3" font-family="Times New Roman,serif" font-size="14.00">Closed (44)</text>
</g>
<!-- 412665240 -->
<g id="node3" class="node">
<title>412665240</title>
<polygon fill="#ffffff" stroke="black" points="296.99,-384 195.99,-384 195.99,-348 296.99,-348 296.99,-384"/>
<text text-anchor="middle" x="246.49" y="-362.3" font-family="Times New Roman,serif" font-size="14.00">Insert ticket (3)</text>
</g>
<!-- 412665240&#45;&gt;&#45;1995962449 -->
<g id="edge5" class="edge">
<title>412665240&#45;&gt;&#45;1995962449</title>
<path fill="none" stroke="black" stroke-width="1.07" d="M246.49,-347.8C246.49,-336.16 246.49,-320.55 246.49,-307.24"/>
<polygon fill="black" stroke="black" stroke-width="1.07" points="249.99,-307.18 246.49,-297.18 242.99,-307.18 249.99,-307.18"/>
<text text-anchor="middle" x="249.99" y="-318.8" font-family="Times New Roman,serif" font-size="14.00">3</text>
</g>
<!-- &#45;843882614&#45;&gt;2115092379 -->
<g id="edge6" class="edge">
<title>&#45;843882614&#45;&gt;2115092379</title>
<path fill="none" stroke="black" stroke-width="2.6" d="M114.67,-173.8C113.44,-162.16 111.78,-146.55 110.37,-133.24"/>
<polygon fill="black" stroke="black" stroke-width="2.6" points="113.84,-132.75 109.31,-123.18 106.88,-133.49 113.84,-132.75"/>
<text text-anchor="middle" x="120.49" y="-144.8" font-family="Times New Roman,serif" font-size="14.00">44</text>
</g>
<!-- &#45;843882614&#45;&gt;&#45;843882614 -->
<g id="edge7" class="edge">
<title>&#45;843882614&#45;&gt;&#45;843882614</title>
<path fill="none" stroke="black" stroke-width="1.19" d="M177.77,-199.35C188.24,-198.35 195.49,-195.9 195.49,-192 195.49,-189.56 192.66,-187.69 187.98,-186.39"/>
<polygon fill="black" stroke="black" stroke-width="1.19" points="188.21,-182.88 177.77,-184.65 187.04,-189.78 188.21,-182.88"/>
<text text-anchor="middle" x="198.99" y="-188.3" font-family="Times New Roman,serif" font-size="14.00">6</text>
</g>
<!-- &#45;843882614&#45;&gt;&#45;277961005 -->
<g id="edge8" class="edge">
<title>&#45;843882614&#45;&gt;&#45;277961005</title>
<path fill="none" stroke="black" d="M145.08,-173.83C154.22,-168.24 164.33,-161.94 173.49,-156 186.79,-147.37 201.22,-137.58 213.72,-128.95"/>
<polygon fill="black" stroke="black" points="215.8,-131.77 222.03,-123.2 211.81,-126.02 215.8,-131.77"/>
<text text-anchor="middle" x="199.99" y="-144.8" font-family="Times New Roman,serif" font-size="14.00">1</text>
</g>
<!-- &#45;843882614&#45;&gt;&#45;1546287983 -->
<g id="edge9" class="edge">
<title>&#45;843882614&#45;&gt;&#45;1546287983</title>
<path fill="none" stroke="black" d="M55.4,-177.31C42.43,-172.24 29.62,-165.35 19.49,-156 -3.58,-134.72 -2.15,-117.67 4.49,-87 7.9,-71.25 7.31,-64.55 19.49,-54 40.3,-35.97 69.96,-27.21 94.58,-22.97"/>
<polygon fill="black" stroke="black" points="95.43,-26.38 104.79,-21.41 94.37,-19.46 95.43,-26.38"/>
<text text-anchor="middle" x="7.99" y="-101.3" font-family="Times New Roman,serif" font-size="14.00">1</text>
</g>
<!-- &#45;277961005&#45;&gt;&#45;843882614 -->
<g id="edge10" class="edge">
<title>&#45;277961005&#45;&gt;&#45;843882614</title>
<path fill="none" stroke="black" stroke-width="1.86" d="M188.21,-123.01C176.76,-127.8 165.28,-133.74 155.49,-141 146.6,-147.59 138.68,-156.71 132.34,-165.36"/>
<polygon fill="black" stroke="black" stroke-width="1.86" points="129.35,-163.52 126.54,-173.74 135.11,-167.5 129.35,-163.52"/>
<text text-anchor="middle" x="162.49" y="-144.8" font-family="Times New Roman,serif" font-size="14.00">24</text>
</g>
<!-- &#45;277961005&#45;&gt;&#45;1546287983 -->
<g id="edge11" class="edge">
<title>&#45;277961005&#45;&gt;&#45;1546287983</title>
<path fill="none" stroke="black" stroke-width="1.33" d="M224.84,-86.8C208.88,-74.13 186.99,-56.73 169.37,-42.74"/>
<polygon fill="black" stroke="black" stroke-width="1.33" points="171.12,-39.66 161.11,-36.18 166.76,-45.14 171.12,-39.66"/>
<text text-anchor="middle" x="206.49" y="-57.8" font-family="Times New Roman,serif" font-size="14.00">10</text>
</g>
<!-- &#45;1546287983&#45;&gt;&#45;843882614 -->
<g id="edge12" class="edge">
<title>&#45;1546287983&#45;&gt;&#45;843882614</title>
<path fill="none" stroke="black" stroke-width="1.41" d="M104.53,-33.22C82.36,-44.29 55.49,-62 42.49,-87 27.08,-116.62 55.45,-147.41 81.4,-167.72"/>
<polygon fill="black" stroke="black" stroke-width="1.41" points="79.58,-170.73 89.68,-173.93 83.78,-165.13 79.58,-170.73"/>
<text text-anchor="middle" x="49.49" y="-101.3" font-family="Times New Roman,serif" font-size="14.00">12</text>
</g>
<!-- &#45;1546287983&#45;&gt;&#45;1546287983 -->
<g id="edge13" class="edge">
<title>&#45;1546287983&#45;&gt;&#45;1546287983</title>
<path fill="none" stroke="black" d="M174.08,-25.85C184.17,-25.58 191.99,-22.96 191.99,-18 191.99,-14.9 188.93,-12.71 184.18,-11.44"/>
<polygon fill="black" stroke="black" points="184.44,-7.95 174.08,-10.15 183.55,-14.89 184.44,-7.95"/>
<text text-anchor="middle" x="195.49" y="-14.3" font-family="Times New Roman,serif" font-size="14.00">1</text>
</g>
</g>
</svg>
