<?xml version="1.0" encoding="UTF-8" standalone="no"?>
<!DOCTYPE svg PUBLIC "-//W3C//DTD SVG 1.1//EN"
 "http://www.w3.org/Graphics/SVG/1.1/DTD/svg11.dtd">
<!-- Generated by graphviz version 2.44.1 (20200629.0846)
 -->
<!-- Pages: 1 -->
<svg width="459pt" height="479pt"
 viewBox="0.00 0.00 458.50 479.00" xmlns="http://www.w3.org/2000/svg" xmlns:xlink="http://www.w3.org/1999/xlink">
<g id="graph0" class="graph" transform="scale(1 1) rotate(0) translate(4 475)">
<!-- &#45;1995962449 -->
<g id="node1" class="node">
<title>&#45;1995962449</title>
<polygon fill="#a3a3ff" stroke="black" points="390.5,-471 234.5,-471 234.5,-435 390.5,-435 390.5,-471"/>
<text text-anchor="middle" x="312.5" y="-449.3" font-family="Times New Roman,serif" font-size="14.00">Assign seriousness (115)</text>
</g>
<!-- &#45;1995962449&#45;&gt;&#45;1995962449 -->
<g id="edge1" class="edge">
<title>&#45;1995962449&#45;&gt;&#45;1995962449</title>
<path fill="none" stroke="black" stroke-width="1.03" d="M390.85,-459.99C401.44,-458.82 408.5,-456.49 408.5,-453 408.5,-450.77 405.6,-449.01 400.74,-447.72"/>
<polygon fill="black" stroke="black" stroke-width="1.03" points="401.3,-444.27 390.85,-446.01 400.1,-451.17 401.3,-444.27"/>
<text text-anchor="middle" x="412" y="-449.3" font-family="Times New Roman,serif" font-size="14.00">3</text>
</g>
<!-- &#45;1388062580 -->
<g id="node3" class="node">
<title>&#45;1388062580</title>
<polygon fill="#ffffff" stroke="black" points="276.5,-384 128.5,-384 128.5,-348 276.5,-348 276.5,-384"/>
<text text-anchor="middle" x="202.5" y="-362.3" font-family="Times New Roman,serif" font-size="14.00">Create SW anomaly (5)</text>
</g>
<!-- &#45;1995962449&#45;&gt;&#45;1388062580 -->
<g id="edge2" class="edge">
<title>&#45;1995962449&#45;&gt;&#45;1388062580</title>
<path fill="none" stroke="black" d="M290.24,-434.8C273.69,-422.01 250.92,-404.42 232.73,-390.36"/>
<polygon fill="black" stroke="black" points="234.78,-387.52 224.73,-384.18 230.5,-393.06 234.78,-387.52"/>
<text text-anchor="middle" x="268" y="-405.8" font-family="Times New Roman,serif" font-size="14.00">1</text>
</g>
<!-- &#45;1077976502 -->
<g id="node4" class="node">
<title>&#45;1077976502</title>
<polygon fill="#f9f9ff" stroke="black" points="355,-297 220,-297 220,-261 355,-261 355,-297"/>
<text text-anchor="middle" x="287.5" y="-275.3" font-family="Times New Roman,serif" font-size="14.00">Require upgrade (12)</text>
</g>
<!-- &#45;1995962449&#45;&gt;&#45;1077976502 -->
<g id="edge3" class="edge">
<title>&#45;1995962449&#45;&gt;&#45;1077976502</title>
<path fill="none" stroke="black" stroke-width="1.01" d="M310.01,-434.88C305.67,-405 296.67,-343.11 291.46,-307.27"/>
<polygon fill="black" stroke="black" stroke-width="1.01" points="294.88,-306.44 289.98,-297.05 287.95,-307.45 294.88,-306.44"/>
<text text-anchor="middle" x="306" y="-362.3" font-family="Times New Roman,serif" font-size="14.00">2</text>
</g>
<!-- &#45;843882614 -->
<g id="node5" class="node">
<title>&#45;843882614</title>
<polygon fill="#9c9cff" stroke="black" points="164.5,-210 36.5,-210 36.5,-174 164.5,-174 164.5,-210"/>
<text text-anchor="middle" x="100.5" y="-188.3" font-family="Times New Roman,serif" font-size="14.00">Resolve ticket (123)</text>
</g>
<!-- &#45;1995962449&#45;&gt;&#45;843882614 -->
<g id="edge4" class="edge">
<title>&#45;1995962449&#45;&gt;&#45;843882614</title>
<path fill="none" stroke="black" d="M234.15,-444.24C193.58,-435.96 146.92,-418.93 119.5,-384 82.19,-336.48 88.2,-260.47 94.88,-220.16"/>
<polygon fill="black" stroke="black" points="98.34,-220.71 96.66,-210.25 91.45,-219.48 98.34,-220.71"/>
<text text-anchor="middle" x="99" y="-318.8" font-family="Times New Roman,serif" font-size="14.00">1</text>
</g>
<!-- &#45;277961005 -->
<g id="node6" class="node">
<title>&#45;277961005</title>
<polygon fill="#9b9bff" stroke="black" points="328,-123 163,-123 163,-87 328,-87 328,-123"/>
<text text-anchor="middle" x="245.5" y="-101.3" font-family="Times New Roman,serif" font-size="14.00">Take in charge ticket (125)</text>
</g>
<!-- &#45;1995962449&#45;&gt;&#45;277961005 -->
<g id="edge5" class="edge">
<title>&#45;1995962449&#45;&gt;&#45;277961005</title>
<path fill="none" stroke="black" stroke-width="2.47" d="M367.92,-434.97C398.16,-421.87 429.5,-400.27 429.5,-367 429.5,-367 429.5,-367 429.5,-191 429.5,-146.17 383.93,-124.91 338.14,-114.86"/>
<polygon fill="black" stroke="black" stroke-width="2.47" points="338.58,-111.38 328.08,-112.82 337.19,-118.24 338.58,-111.38"/>
<text text-anchor="middle" x="440" y="-275.3" font-family="Times New Roman,serif" font-size="14.00">106</text>
</g>
<!-- &#45;1546287983 -->
<g id="node7" class="node">
<title>&#45;1546287983</title>
<polygon fill="#d2d2ff" stroke="black" points="280,-36 211,-36 211,0 280,0 280,-36"/>
<text text-anchor="middle" x="245.5" y="-14.3" font-family="Times New Roman,serif" font-size="14.00">Wait (58)</text>
</g>
<!-- &#45;1995962449&#45;&gt;&#45;1546287983 -->
<g id="edge6" class="edge">
<title>&#45;1995962449&#45;&gt;&#45;1546287983</title>
<path fill="none" stroke="black" stroke-width="1.01" d="M339.34,-434.88C359.45,-419.74 383.5,-395.65 383.5,-367 383.5,-367 383.5,-367 383.5,-104 383.5,-59.38 330.56,-37.43 290.26,-27.18"/>
<polygon fill="black" stroke="black" stroke-width="1.01" points="290.86,-23.72 280.32,-24.82 289.24,-30.53 290.86,-23.72"/>
<text text-anchor="middle" x="387" y="-231.8" font-family="Times New Roman,serif" font-size="14.00">2</text>
</g>
<!-- 2115092379 -->
<g id="node2" class="node">
<title>2115092379</title>
<polygon fill="#a3a3ff" stroke="black" points="89,-123 0,-123 0,-87 89,-87 89,-123"/>
<text text-anchor="middle" x="44.5" y="-101.3" font-family="Times New Roman,serif" font-size="14.00">Closed (115)</text>
</g>
<!-- &#45;1388062580&#45;&gt;&#45;1077976502 -->
<g id="edge7" class="edge">
<title>&#45;1388062580&#45;&gt;&#45;1077976502</title>
<path fill="none" stroke="black" stroke-width="1.03" d="M219.7,-347.8C232.14,-335.36 249.14,-318.36 263,-304.5"/>
<polygon fill="black" stroke="black" stroke-width="1.03" points="265.73,-306.72 270.32,-297.18 260.78,-301.77 265.73,-306.72"/>
<text text-anchor="middle" x="254" y="-318.8" font-family="Times New Roman,serif" font-size="14.00">3</text>
</g>
<!-- &#45;1388062580&#45;&gt;&#45;843882614 -->
<g id="edge8" class="edge">
<title>&#45;1388062580&#45;&gt;&#45;843882614</title>
<path fill="none" stroke="black" stroke-width="1.01" d="M189.66,-347.81C185.64,-342.22 181.27,-335.92 177.5,-330 153.67,-292.51 129.01,-247.3 114.21,-219.34"/>
<polygon fill="black" stroke="black" stroke-width="1.01" points="117.16,-217.44 109.41,-210.22 110.97,-220.7 117.16,-217.44"/>
<text text-anchor="middle" x="160" y="-275.3" font-family="Times New Roman,serif" font-size="14.00">2</text>
</g>
<!-- &#45;1077976502&#45;&gt;&#45;843882614 -->
<g id="edge9" class="edge">
<title>&#45;1077976502&#45;&gt;&#45;843882614</title>
<path fill="none" stroke="black" stroke-width="1.14" d="M262.83,-260.93C246.96,-250.47 225.61,-237.34 205.5,-228 194.02,-222.67 181.49,-217.76 169.22,-213.42"/>
<polygon fill="black" stroke="black" stroke-width="1.14" points="170.05,-210 159.45,-210.06 167.77,-216.62 170.05,-210"/>
<text text-anchor="middle" x="241.5" y="-231.8" font-family="Times New Roman,serif" font-size="14.00">11</text>
</g>
<!-- &#45;1077976502&#45;&gt;&#45;277961005 -->
<g id="edge10" class="edge">
<title>&#45;1077976502&#45;&gt;&#45;277961005</title>
<path fill="none" stroke="black" d="M283.32,-260.88C275.99,-230.87 260.78,-168.58 252.05,-132.81"/>
<polygon fill="black" stroke="black" points="255.44,-131.94 249.66,-123.05 248.64,-133.6 255.44,-131.94"/>
<text text-anchor="middle" x="275" y="-188.3" font-family="Times New Roman,serif" font-size="14.00">1</text>
</g>
<!-- &#45;843882614&#45;&gt;2115092379 -->
<g id="edge11" class="edge">
<title>&#45;843882614&#45;&gt;2115092379</title>
<path fill="none" stroke="black" stroke-width="2.6" d="M89.17,-173.8C81.2,-161.7 70.39,-145.3 61.41,-131.67"/>
<polygon fill="black" stroke="black" stroke-width="2.6" points="64.24,-129.6 55.82,-123.18 58.39,-133.45 64.24,-129.6"/>
<text text-anchor="middle" x="87" y="-144.8" font-family="Times New Roman,serif" font-size="14.00">115</text>
</g>
<!-- &#45;843882614&#45;&gt;&#45;843882614 -->
<g id="edge12" class="edge">
<title>&#45;843882614&#45;&gt;&#45;843882614</title>
<path fill="none" stroke="black" stroke-width="1.07" d="M164.79,-199.29C175.29,-198.24 182.5,-195.81 182.5,-192 182.5,-189.56 179.54,-187.68 174.65,-186.38"/>
<polygon fill="black" stroke="black" stroke-width="1.07" points="175.23,-182.92 164.79,-184.71 174.07,-189.83 175.23,-182.92"/>
<text text-anchor="middle" x="186" y="-188.3" font-family="Times New Roman,serif" font-size="14.00">6</text>
</g>
<!-- &#45;843882614&#45;&gt;&#45;277961005 -->
<g id="edge13" class="edge">
<title>&#45;843882614&#45;&gt;&#45;277961005</title>
<path fill="none" stroke="black" stroke-width="1.01" d="M118.4,-173.96C130.03,-163.5 145.89,-150.37 161.5,-141 169.93,-135.94 179.23,-131.27 188.47,-127.1"/>
<polygon fill="black" stroke="black" stroke-width="1.01" points="189.89,-130.3 197.67,-123.1 187.1,-123.88 189.89,-130.3"/>
<text text-anchor="middle" x="165" y="-144.8" font-family="Times New Roman,serif" font-size="14.00">2</text>
</g>
<!-- &#45;277961005&#45;&gt;&#45;1388062580 -->
<g id="edge14" class="edge">
<title>&#45;277961005&#45;&gt;&#45;1388062580</title>
<path fill="none" stroke="black" stroke-width="1.04" d="M236.35,-123.16C224.63,-146.22 204.92,-188.87 197.5,-228 190.37,-265.57 194.16,-309.95 197.97,-337.79"/>
<polygon fill="black" stroke="black" stroke-width="1.04" points="194.55,-338.56 199.46,-347.94 201.47,-337.54 194.55,-338.56"/>
<text text-anchor="middle" x="201" y="-231.8" font-family="Times New Roman,serif" font-size="14.00">4</text>
</g>
<!-- &#45;277961005&#45;&gt;&#45;1077976502 -->
<g id="edge15" class="edge">
<title>&#45;277961005&#45;&gt;&#45;1077976502</title>
<path fill="none" stroke="black" stroke-width="1.08" d="M259.19,-123.2C263.17,-128.69 267.3,-134.92 270.5,-141 292.06,-181.96 294.13,-196.79 291.5,-243 291.35,-245.56 291.15,-248.23 290.91,-250.89"/>
<polygon fill="black" stroke="black" stroke-width="1.08" points="287.41,-250.63 289.84,-260.94 294.38,-251.37 287.41,-250.63"/>
<text text-anchor="middle" x="296" y="-188.3" font-family="Times New Roman,serif" font-size="14.00">7</text>
</g>
<!-- &#45;277961005&#45;&gt;&#45;843882614 -->
<g id="edge16" class="edge">
<title>&#45;277961005&#45;&gt;&#45;843882614</title>
<path fill="none" stroke="black" stroke-width="1.74" d="M217.8,-123.16C208.76,-128.81 198.68,-135.14 189.5,-141 179.21,-147.57 177.01,-149.8 166.5,-156 159.03,-160.4 150.96,-164.89 143.12,-169.12"/>
<polygon fill="black" stroke="black" stroke-width="1.74" points="141.24,-166.16 134.06,-173.95 144.53,-172.34 141.24,-166.16"/>
<text text-anchor="middle" x="196.5" y="-144.8" font-family="Times New Roman,serif" font-size="14.00">54</text>
</g>
<!-- &#45;277961005&#45;&gt;&#45;277961005 -->
<g id="edge17" class="edge">
<title>&#45;277961005&#45;&gt;&#45;277961005</title>
<path fill="none" stroke="black" stroke-width="1.04" d="M328.3,-111.9C338.96,-110.7 346,-108.4 346,-105 346,-102.82 343.11,-101.09 338.23,-99.82"/>
<polygon fill="black" stroke="black" stroke-width="1.04" points="338.75,-96.35 328.3,-98.1 337.55,-103.25 338.75,-96.35"/>
<text text-anchor="middle" x="349.5" y="-101.3" font-family="Times New Roman,serif" font-size="14.00">4</text>
</g>
<!-- &#45;277961005&#45;&gt;&#45;1546287983 -->
<g id="edge18" class="edge">
<title>&#45;277961005&#45;&gt;&#45;1546287983</title>
<path fill="none" stroke="black" stroke-width="1.77" d="M245.5,-86.8C245.5,-75.16 245.5,-59.55 245.5,-46.24"/>
<polygon fill="black" stroke="black" stroke-width="1.77" points="249,-46.18 245.5,-36.18 242,-46.18 249,-46.18"/>
<text text-anchor="middle" x="252.5" y="-57.8" font-family="Times New Roman,serif" font-size="14.00">56</text>
</g>
<!-- &#45;1546287983&#45;&gt;&#45;843882614 -->
<g id="edge19" class="edge">
<title>&#45;1546287983&#45;&gt;&#45;843882614</title>
<path fill="none" stroke="black" stroke-width="1.67" d="M210.78,-34.06C187.78,-45.6 158.46,-63.53 139.5,-87 121.3,-109.53 111.03,-141.43 105.65,-163.94"/>
<polygon fill="black" stroke="black" stroke-width="1.67" points="102.2,-163.34 103.45,-173.86 109.03,-164.85 102.2,-163.34"/>
<text text-anchor="middle" x="146.5" y="-101.3" font-family="Times New Roman,serif" font-size="14.00">49</text>
</g>
<!-- &#45;1546287983&#45;&gt;&#45;277961005 -->
<g id="edge20" class="edge">
<title>&#45;1546287983&#45;&gt;&#45;277961005</title>
<path fill="none" stroke="black" stroke-width="1.11" d="M238.56,-36.02C235.44,-45.65 232.8,-57.93 234.5,-69 234.91,-71.68 235.49,-74.44 236.17,-77.17"/>
<polygon fill="black" stroke="black" stroke-width="1.11" points="232.81,-78.17 238.95,-86.8 239.54,-76.22 232.81,-78.17"/>
<text text-anchor="middle" x="238" y="-57.8" font-family="Times New Roman,serif" font-size="14.00">9</text>
</g>
</g>
</svg>
