<?xml version="1.0" encoding="UTF-8" standalone="no"?>
<!DOCTYPE svg PUBLIC "-//W3C//DTD SVG 1.1//EN"
 "http://www.w3.org/Graphics/SVG/1.1/DTD/svg11.dtd">
<!-- Generated by graphviz version 2.44.1 (20200629.0846)
 -->
<!-- Pages: 1 -->
<svg width="823pt" height="1088pt"
 viewBox="0.00 0.00 823.00 1088.00" xmlns="http://www.w3.org/2000/svg" xmlns:xlink="http://www.w3.org/1999/xlink">
<g id="graph0" class="graph" transform="scale(1 1) rotate(0) translate(4 1084)">
<!-- &#45;1995962449 -->
<g id="node1" class="node">
<title>&#45;1995962449</title>
<polygon fill="#9d9dff" stroke="black" points="652.5,-993 489.5,-993 489.5,-957 652.5,-957 652.5,-993"/>
<text text-anchor="middle" x="571" y="-971.3" font-family="Times New Roman,serif" font-size="14.00">Assign seriousness (4938)</text>
</g>
<!-- &#45;1995962449&#45;&gt;&#45;1995962449 -->
<g id="edge1" class="edge">
<title>&#45;1995962449&#45;&gt;&#45;1995962449</title>
<path fill="none" stroke="black" stroke-width="1.15" d="M652.59,-981.94C663.36,-980.76 670.5,-978.45 670.5,-975 670.5,-972.79 667.57,-971.05 662.63,-969.77"/>
<polygon fill="black" stroke="black" stroke-width="1.15" points="663.04,-966.29 652.59,-968.06 661.86,-973.19 663.04,-966.29"/>
<text text-anchor="middle" x="681" y="-971.3" font-family="Times New Roman,serif" font-size="14.00">439</text>
</g>
<!-- &#45;1388062580 -->
<g id="node3" class="node">
<title>&#45;1388062580</title>
<polygon fill="#fdfdff" stroke="black" points="436.5,-906 281.5,-906 281.5,-870 436.5,-870 436.5,-906"/>
<text text-anchor="middle" x="359" y="-884.3" font-family="Times New Roman,serif" font-size="14.00">Create SW anomaly (67)</text>
</g>
<!-- &#45;1995962449&#45;&gt;&#45;1388062580 -->
<g id="edge2" class="edge">
<title>&#45;1995962449&#45;&gt;&#45;1388062580</title>
<path fill="none" stroke="black" stroke-width="1" d="M528.35,-956.9C494.5,-943.33 447.03,-924.29 410.96,-909.83"/>
<polygon fill="black" stroke="black" stroke-width="1" points="412.16,-906.54 401.58,-906.07 409.56,-913.04 412.16,-906.54"/>
<text text-anchor="middle" x="480.5" y="-927.8" font-family="Times New Roman,serif" font-size="14.00">4</text>
</g>
<!-- &#45;1077976502 -->
<g id="node8" class="node">
<title>&#45;1077976502</title>
<polygon fill="#fcfcff" stroke="black" points="489,-819 347,-819 347,-783 489,-783 489,-819"/>
<text text-anchor="middle" x="418" y="-797.3" font-family="Times New Roman,serif" font-size="14.00">Require upgrade (119)</text>
</g>
<!-- &#45;1995962449&#45;&gt;&#45;1077976502 -->
<g id="edge3" class="edge">
<title>&#45;1995962449&#45;&gt;&#45;1077976502</title>
<path fill="none" stroke="black" stroke-width="1" d="M555.77,-956.88C528.51,-926.23 471.27,-861.89 439.83,-826.55"/>
<polygon fill="black" stroke="black" stroke-width="1" points="442.43,-824.2 433.17,-819.05 437.2,-828.85 442.43,-824.2"/>
<text text-anchor="middle" x="512.5" y="-884.3" font-family="Times New Roman,serif" font-size="14.00">8</text>
</g>
<!-- &#45;843882614 -->
<g id="node10" class="node">
<title>&#45;843882614</title>
<polygon fill="#9c9cff" stroke="black" points="648.5,-471 513.5,-471 513.5,-435 648.5,-435 648.5,-471"/>
<text text-anchor="middle" x="581" y="-449.3" font-family="Times New Roman,serif" font-size="14.00">Resolve ticket (4982)</text>
</g>
<!-- &#45;1995962449&#45;&gt;&#45;843882614 -->
<g id="edge4" class="edge">
<title>&#45;1995962449&#45;&gt;&#45;843882614</title>
<path fill="none" stroke="black" stroke-width="1.09" d="M652.52,-962.99C687.37,-953.8 724.83,-936.94 746,-906 755.49,-892.13 785.85,-762.34 707,-522 701.72,-505.92 701.14,-499.67 688,-489 679.2,-481.85 668.89,-476.14 658.22,-471.59"/>
<polygon fill="black" stroke="black" stroke-width="1.09" points="659.35,-468.28 648.77,-467.89 656.8,-474.8 659.35,-468.28"/>
<text text-anchor="middle" x="764.5" y="-710.3" font-family="Times New Roman,serif" font-size="14.00">258</text>
</g>
<!-- &#45;277961005 -->
<g id="node12" class="node">
<title>&#45;277961005</title>
<polygon fill="#9b9bff" stroke="black" points="461,-645 289,-645 289,-609 461,-609 461,-645"/>
<text text-anchor="middle" x="375" y="-623.3" font-family="Times New Roman,serif" font-size="14.00">Take in charge ticket (5059)</text>
</g>
<!-- &#45;1995962449&#45;&gt;&#45;277961005 -->
<g id="edge5" class="edge">
<title>&#45;1995962449&#45;&gt;&#45;277961005</title>
<path fill="none" stroke="black" stroke-width="2.46" d="M569.65,-956.97C565.66,-907.76 553.49,-767.76 543,-750 515.59,-703.6 462.89,-669.78 423.79,-649.68"/>
<polygon fill="black" stroke="black" stroke-width="2.46" points="425.18,-646.46 414.67,-645.11 422.05,-652.72 425.18,-646.46"/>
<text text-anchor="middle" x="570" y="-797.3" font-family="Times New Roman,serif" font-size="14.00">4160</text>
</g>
<!-- &#45;1546287983 -->
<g id="node14" class="node">
<title>&#45;1546287983</title>
<polygon fill="#e2e2ff" stroke="black" points="669.5,-732 586.5,-732 586.5,-696 669.5,-696 669.5,-732"/>
<text text-anchor="middle" x="628" y="-710.3" font-family="Times New Roman,serif" font-size="14.00">Wait (1462)</text>
</g>
<!-- &#45;1995962449&#45;&gt;&#45;1546287983 -->
<g id="edge6" class="edge">
<title>&#45;1995962449&#45;&gt;&#45;1546287983</title>
<path fill="none" stroke="black" stroke-width="1.02" d="M578.68,-956.85C593.85,-921.74 626.9,-838.75 635,-765 635.82,-757.54 635.31,-749.47 634.26,-742.04"/>
<polygon fill="black" stroke="black" stroke-width="1.02" points="637.69,-741.34 632.51,-732.09 630.8,-742.55 637.69,-741.34"/>
<text text-anchor="middle" x="627" y="-840.8" font-family="Times New Roman,serif" font-size="14.00">69</text>
</g>
<!-- 2115092379 -->
<g id="node2" class="node">
<title>2115092379</title>
<polygon fill="#a4a4ff" stroke="black" points="647,-210 551,-210 551,-174 647,-174 647,-210"/>
<text text-anchor="middle" x="599" y="-188.3" font-family="Times New Roman,serif" font-size="14.00">Closed (4573)</text>
</g>
<!-- 2115092379&#45;&gt;2115092379 -->
<g id="edge7" class="edge">
<title>2115092379&#45;&gt;2115092379</title>
<path fill="none" stroke="black" stroke-width="1" d="M647.05,-199.64C657.46,-198.9 665,-196.35 665,-192 665,-189.21 661.9,-187.17 656.94,-185.86"/>
<polygon fill="black" stroke="black" stroke-width="1" points="657.47,-182.4 647.05,-184.36 656.41,-189.32 657.47,-182.4"/>
<text text-anchor="middle" x="672" y="-188.3" font-family="Times New Roman,serif" font-size="14.00">14</text>
</g>
<!-- 2115092379&#45;&gt;&#45;277961005 -->
<g id="edge8" class="edge">
<title>2115092379&#45;&gt;&#45;277961005</title>
<path fill="none" stroke="black" stroke-width="1" d="M550.81,-208.65C549.19,-209.11 547.58,-209.56 546,-210 481.14,-227.84 251,-210.73 251,-278 251,-454 251,-454 251,-454 251,-516.97 306.37,-572.59 343.11,-602.56"/>
<polygon fill="black" stroke="black" stroke-width="1" points="341.09,-605.42 351.09,-608.91 345.45,-599.95 341.09,-605.42"/>
<text text-anchor="middle" x="254.5" y="-405.8" font-family="Times New Roman,serif" font-size="14.00">2</text>
</g>
<!-- 1370425369 -->
<g id="node13" class="node">
<title>1370425369</title>
<polygon fill="#fefeff" stroke="black" points="678.5,-123 579.5,-123 579.5,-87 678.5,-87 678.5,-123"/>
<text text-anchor="middle" x="629" y="-101.3" font-family="Times New Roman,serif" font-size="14.00">VERIFIED (3)</text>
</g>
<!-- 2115092379&#45;&gt;1370425369 -->
<g id="edge9" class="edge">
<title>2115092379&#45;&gt;1370425369</title>
<path fill="none" stroke="black" d="M597.57,-173.82C597.34,-163.92 598.09,-151.42 602,-141 603.18,-137.84 604.76,-134.73 606.56,-131.75"/>
<polygon fill="black" stroke="black" points="609.62,-133.48 612.44,-123.27 603.86,-129.49 609.62,-133.48"/>
<text text-anchor="middle" x="605.5" y="-144.8" font-family="Times New Roman,serif" font-size="14.00">1</text>
</g>
<!-- &#45;1388062580&#45;&gt;&#45;1388062580 -->
<g id="edge10" class="edge">
<title>&#45;1388062580&#45;&gt;&#45;1388062580</title>
<path fill="none" stroke="black" stroke-width="1" d="M436.57,-895.03C447.31,-893.87 454.5,-891.53 454.5,-888 454.5,-885.74 451.55,-883.97 446.61,-882.68"/>
<polygon fill="black" stroke="black" stroke-width="1" points="447.01,-879.2 436.57,-880.97 445.84,-886.1 447.01,-879.2"/>
<text text-anchor="middle" x="458" y="-884.3" font-family="Times New Roman,serif" font-size="14.00">4</text>
</g>
<!-- &#45;1388062580&#45;&gt;&#45;1077976502 -->
<g id="edge11" class="edge">
<title>&#45;1388062580&#45;&gt;&#45;1077976502</title>
<path fill="none" stroke="black" stroke-width="1" d="M363.27,-869.79C366.32,-859.65 371.11,-846.91 378,-837 380.62,-833.23 383.73,-829.61 387.04,-826.22"/>
<polygon fill="black" stroke="black" stroke-width="1" points="389.63,-828.59 394.5,-819.18 384.82,-823.5 389.63,-828.59"/>
<text text-anchor="middle" x="385" y="-840.8" font-family="Times New Roman,serif" font-size="14.00">11</text>
</g>
<!-- 899515582 -->
<g id="node9" class="node">
<title>899515582</title>
<polygon fill="#fefeff" stroke="black" points="232,-558 68,-558 68,-522 232,-522 232,-558"/>
<text text-anchor="middle" x="150" y="-536.3" font-family="Times New Roman,serif" font-size="14.00">Resolve SW anomaly (13)</text>
</g>
<!-- &#45;1388062580&#45;&gt;899515582 -->
<g id="edge12" class="edge">
<title>&#45;1388062580&#45;&gt;899515582</title>
<path fill="none" stroke="black" stroke-width="1" d="M281.34,-877.94C201.26,-866.37 88,-842.8 88,-802 88,-802 88,-802 88,-626 88,-602.3 103.93,-580.78 119.64,-565.33"/>
<polygon fill="black" stroke="black" stroke-width="1" points="122.32,-567.62 127.27,-558.25 117.56,-562.49 122.32,-567.62"/>
<text text-anchor="middle" x="91.5" y="-710.3" font-family="Times New Roman,serif" font-size="14.00">7</text>
</g>
<!-- &#45;1388062580&#45;&gt;&#45;843882614 -->
<g id="edge13" class="edge">
<title>&#45;1388062580&#45;&gt;&#45;843882614</title>
<path fill="none" stroke="black" stroke-width="1.01" d="M281.1,-884.11C175.52,-878.04 0,-859.32 0,-802 0,-802 0,-802 0,-539 0,-490.1 50.9,-502.14 98,-489 171.99,-468.36 386.45,-459.35 503.14,-455.89"/>
<polygon fill="black" stroke="black" stroke-width="1.01" points="503.54,-459.38 513.44,-455.59 503.34,-452.38 503.54,-459.38"/>
<text text-anchor="middle" x="7" y="-666.8" font-family="Times New Roman,serif" font-size="14.00">42</text>
</g>
<!-- &#45;1388062580&#45;&gt;&#45;277961005 -->
<g id="edge14" class="edge">
<title>&#45;1388062580&#45;&gt;&#45;277961005</title>
<path fill="none" stroke="black" stroke-width="1" d="M352.09,-869.73C347.06,-856.18 340.67,-836.72 338,-819 329.09,-759.93 350.15,-691.31 364.03,-654.53"/>
<polygon fill="black" stroke="black" stroke-width="1" points="367.35,-655.63 367.72,-645.04 360.83,-653.09 367.35,-655.63"/>
<text text-anchor="middle" x="341.5" y="-753.8" font-family="Times New Roman,serif" font-size="14.00">3</text>
</g>
<!-- &#45;666057909 -->
<g id="node4" class="node">
<title>&#45;666057909</title>
<polygon fill="#ffffff" stroke="black" points="743.5,-36 630.5,-36 630.5,0 743.5,0 743.5,-36"/>
<text text-anchor="middle" x="687" y="-14.3" font-family="Times New Roman,serif" font-size="14.00">DUPLICATE (1)</text>
</g>
<!-- &#45;666057909&#45;&gt;&#45;843882614 -->
<g id="edge15" class="edge">
<title>&#45;666057909&#45;&gt;&#45;843882614</title>
<path fill="none" stroke="black" d="M707.94,-36.24C724.55,-51.97 745,-76.85 745,-104 745,-367 745,-367 745,-367 745,-409.54 700.96,-430.82 658.52,-441.45"/>
<polygon fill="black" stroke="black" points="657.6,-438.07 648.65,-443.74 659.18,-444.89 657.6,-438.07"/>
<text text-anchor="middle" x="748.5" y="-231.8" font-family="Times New Roman,serif" font-size="14.00">1</text>
</g>
<!-- &#45;1749566206 -->
<g id="node5" class="node">
<title>&#45;1749566206</title>
<polygon fill="#fefeff" stroke="black" points="572,-297 480,-297 480,-261 572,-261 572,-297"/>
<text text-anchor="middle" x="526" y="-275.3" font-family="Times New Roman,serif" font-size="14.00">INVALID (2)</text>
</g>
<!-- &#45;1749566206&#45;&gt;2115092379 -->
<g id="edge16" class="edge">
<title>&#45;1749566206&#45;&gt;2115092379</title>
<path fill="none" stroke="black" d="M540.77,-260.8C551.36,-248.47 565.78,-231.68 577.62,-217.89"/>
<polygon fill="black" stroke="black" points="580.39,-220.04 584.25,-210.18 575.08,-215.48 580.39,-220.04"/>
<text text-anchor="middle" x="569.5" y="-231.8" font-family="Times New Roman,serif" font-size="14.00">1</text>
</g>
<!-- &#45;1749566206&#45;&gt;1370425369 -->
<g id="edge17" class="edge">
<title>&#45;1749566206&#45;&gt;1370425369</title>
<path fill="none" stroke="black" d="M523.35,-260.89C520.87,-239.18 519.55,-201.28 535,-174 545.92,-154.72 564.81,-139.46 582.81,-128.31"/>
<polygon fill="black" stroke="black" points="584.69,-131.27 591.53,-123.18 581.14,-125.24 584.69,-131.27"/>
<text text-anchor="middle" x="538.5" y="-188.3" font-family="Times New Roman,serif" font-size="14.00">1</text>
</g>
<!-- 412665240 -->
<g id="node6" class="node">
<title>412665240</title>
<polygon fill="#fcfcff" stroke="black" points="628.5,-1080 513.5,-1080 513.5,-1044 628.5,-1044 628.5,-1080"/>
<text text-anchor="middle" x="571" y="-1058.3" font-family="Times New Roman,serif" font-size="14.00">Insert ticket (118)</text>
</g>
<!-- 412665240&#45;&gt;&#45;1995962449 -->
<g id="edge18" class="edge">
<title>412665240&#45;&gt;&#45;1995962449</title>
<path fill="none" stroke="black" stroke-width="1.04" d="M571,-1043.8C571,-1032.16 571,-1016.55 571,-1003.24"/>
<polygon fill="black" stroke="black" stroke-width="1.04" points="574.5,-1003.18 571,-993.18 567.5,-1003.18 574.5,-1003.18"/>
<text text-anchor="middle" x="581.5" y="-1014.8" font-family="Times New Roman,serif" font-size="14.00">111</text>
</g>
<!-- 412665240&#45;&gt;&#45;277961005 -->
<g id="edge19" class="edge">
<title>412665240&#45;&gt;&#45;277961005</title>
<path fill="none" stroke="black" stroke-width="1" d="M513.28,-1059.66C408.8,-1055.65 199,-1039.68 199,-976 199,-976 199,-976 199,-713 199,-672.24 237.75,-651.02 278.88,-639.97"/>
<polygon fill="black" stroke="black" stroke-width="1" points="279.94,-643.31 288.8,-637.5 278.26,-636.52 279.94,-643.31"/>
<text text-anchor="middle" x="202.5" y="-840.8" font-family="Times New Roman,serif" font-size="14.00">3</text>
</g>
<!-- 412665240&#45;&gt;&#45;1546287983 -->
<g id="edge20" class="edge">
<title>412665240&#45;&gt;&#45;1546287983</title>
<path fill="none" stroke="black" stroke-width="1" d="M628.68,-1045.95C655.62,-1035.72 685.17,-1019.15 701,-993 731.65,-942.39 790.86,-988.88 664,-750 662.02,-746.28 659.51,-742.71 656.73,-739.37"/>
<polygon fill="black" stroke="black" stroke-width="1" points="659.27,-736.97 649.89,-732.05 654.15,-741.74 659.27,-736.97"/>
<text text-anchor="middle" x="738.5" y="-884.3" font-family="Times New Roman,serif" font-size="14.00">4</text>
</g>
<!-- &#45;2066256733 -->
<g id="node7" class="node">
<title>&#45;2066256733</title>
<polygon fill="#fefeff" stroke="black" points="575.5,-384 466.5,-384 466.5,-348 575.5,-348 575.5,-384"/>
<text text-anchor="middle" x="521" y="-362.3" font-family="Times New Roman,serif" font-size="14.00">RESOLVED (2)</text>
</g>
<!-- &#45;2066256733&#45;&gt;&#45;1749566206 -->
<g id="edge21" class="edge">
<title>&#45;2066256733&#45;&gt;&#45;1749566206</title>
<path fill="none" stroke="black" stroke-width="1" d="M522.01,-347.8C522.7,-336.16 523.61,-320.55 524.4,-307.24"/>
<polygon fill="black" stroke="black" stroke-width="1" points="527.9,-307.36 524.99,-297.18 520.91,-306.95 527.9,-307.36"/>
<text text-anchor="middle" x="526.5" y="-318.8" font-family="Times New Roman,serif" font-size="14.00">2</text>
</g>
<!-- &#45;1077976502&#45;&gt;&#45;1388062580 -->
<g id="edge22" class="edge">
<title>&#45;1077976502&#45;&gt;&#45;1388062580</title>
<path fill="none" stroke="black" stroke-width="1" d="M410.44,-819.34C405.75,-829.29 399.25,-841.79 392,-852 389.55,-855.45 386.78,-858.9 383.91,-862.22"/>
<polygon fill="black" stroke="black" stroke-width="1" points="381.28,-859.91 377.14,-869.66 386.46,-864.62 381.28,-859.91"/>
<text text-anchor="middle" x="404.5" y="-840.8" font-family="Times New Roman,serif" font-size="14.00">3</text>
</g>
<!-- &#45;1077976502&#45;&gt;&#45;1077976502 -->
<g id="edge23" class="edge">
<title>&#45;1077976502&#45;&gt;&#45;1077976502</title>
<path fill="none" stroke="black" stroke-width="1.01" d="M489.23,-808.14C499.83,-807.03 507,-804.65 507,-801 507,-798.66 504.06,-796.84 499.15,-795.55"/>
<polygon fill="black" stroke="black" stroke-width="1.01" points="499.67,-792.08 489.23,-793.86 498.5,-798.99 499.67,-792.08"/>
<text text-anchor="middle" x="514" y="-797.3" font-family="Times New Roman,serif" font-size="14.00">16</text>
</g>
<!-- &#45;1077976502&#45;&gt;&#45;843882614 -->
<g id="edge24" class="edge">
<title>&#45;1077976502&#45;&gt;&#45;843882614</title>
<path fill="none" stroke="black" stroke-width="1.03" d="M346.85,-792.35C298.49,-784.11 235.32,-767.08 190,-732 103.01,-664.67 -13.07,-605.1 59,-522 87.62,-489 364.72,-467.36 503.13,-458.52"/>
<polygon fill="black" stroke="black" stroke-width="1.03" points="503.49,-462 513.25,-457.88 503.05,-455.02 503.49,-462"/>
<text text-anchor="middle" x="84" y="-623.3" font-family="Times New Roman,serif" font-size="14.00">82</text>
</g>
<!-- &#45;1077976502&#45;&gt;&#45;277961005 -->
<g id="edge25" class="edge">
<title>&#45;1077976502&#45;&gt;&#45;277961005</title>
<path fill="none" stroke="black" stroke-width="1" d="M409.16,-782.85C402.58,-769.38 393.94,-749.94 389,-732 382,-706.57 378.44,-676.64 376.67,-655.44"/>
<polygon fill="black" stroke="black" stroke-width="1" points="380.14,-654.92 375.9,-645.21 373.16,-655.45 380.14,-654.92"/>
<text text-anchor="middle" x="392.5" y="-710.3" font-family="Times New Roman,serif" font-size="14.00">6</text>
</g>
<!-- &#45;1077976502&#45;&gt;1370425369 -->
<g id="edge26" class="edge">
<title>&#45;1077976502&#45;&gt;1370425369</title>
<path fill="none" stroke="black" d="M442.64,-782.88C480.28,-756.91 550.62,-709.2 578,-696 600.79,-685.02 609.32,-689.2 632,-678 698.43,-645.2 770,-658.59 770,-584.5 770,-584.5 770,-584.5 770,-452 770,-388.39 707,-387.11 707,-323.5 707,-323.5 707,-323.5 707,-191 707,-165.24 687.31,-143.91 667.71,-129.06"/>
<polygon fill="black" stroke="black" points="669.55,-126.07 659.38,-123.09 665.48,-131.76 669.55,-126.07"/>
<text text-anchor="middle" x="773.5" y="-449.3" font-family="Times New Roman,serif" font-size="14.00">1</text>
</g>
<!-- &#45;1077976502&#45;&gt;&#45;1546287983 -->
<g id="edge27" class="edge">
<title>&#45;1077976502&#45;&gt;&#45;1546287983</title>
<path fill="none" stroke="black" stroke-width="1" d="M489.3,-784.3C508.1,-779.14 528.12,-772.71 546,-765 562.99,-757.67 580.66,-747.3 595.22,-737.9"/>
<polygon fill="black" stroke="black" stroke-width="1" points="597.43,-740.64 603.86,-732.21 593.58,-734.79 597.43,-740.64"/>
<text text-anchor="middle" x="577.5" y="-753.8" font-family="Times New Roman,serif" font-size="14.00">8</text>
</g>
<!-- 899515582&#45;&gt;&#45;1077976502 -->
<g id="edge28" class="edge">
<title>899515582&#45;&gt;&#45;1077976502</title>
<path fill="none" stroke="black" stroke-width="1" d="M149.43,-558.21C149.35,-585.87 152.71,-640.89 178,-678 214.82,-732.01 283.03,-763.42 337.36,-780.8"/>
<polygon fill="black" stroke="black" stroke-width="1" points="336.39,-784.17 346.98,-783.79 338.46,-777.48 336.39,-784.17"/>
<text text-anchor="middle" x="181.5" y="-666.8" font-family="Times New Roman,serif" font-size="14.00">4</text>
</g>
<!-- 899515582&#45;&gt;899515582 -->
<g id="edge29" class="edge">
<title>899515582&#45;&gt;899515582</title>
<path fill="none" stroke="black" stroke-width="1" d="M232.38,-546.9C242.99,-545.7 250,-543.4 250,-540 250,-537.82 247.12,-536.09 242.27,-534.82"/>
<polygon fill="black" stroke="black" stroke-width="1" points="242.84,-531.36 232.38,-533.1 241.64,-538.26 242.84,-531.36"/>
<text text-anchor="middle" x="253.5" y="-536.3" font-family="Times New Roman,serif" font-size="14.00">5</text>
</g>
<!-- 899515582&#45;&gt;&#45;843882614 -->
<g id="edge30" class="edge">
<title>899515582&#45;&gt;&#45;843882614</title>
<path fill="none" stroke="black" stroke-width="1" d="M232.05,-522.17C250.46,-517.27 269.67,-511.23 287,-504 298.96,-499.01 299.76,-493.26 312,-489 374.18,-467.36 448.67,-458.92 503.48,-455.71"/>
<polygon fill="black" stroke="black" stroke-width="1" points="503.68,-459.21 513.48,-455.17 503.3,-452.22 503.68,-459.21"/>
<text text-anchor="middle" x="315.5" y="-492.8" font-family="Times New Roman,serif" font-size="14.00">4</text>
</g>
<!-- &#45;843882614&#45;&gt;&#45;1995962449 -->
<g id="edge31" class="edge">
<title>&#45;843882614&#45;&gt;&#45;1995962449</title>
<path fill="none" stroke="black" d="M648.8,-465.86C715.69,-479.54 808,-504.65 808,-539 808,-889 808,-889 808,-889 808,-921.22 729.4,-944.52 662.72,-958.49"/>
<polygon fill="black" stroke="black" points="661.66,-955.14 652.56,-960.57 663.06,-961.99 661.66,-955.14"/>
<text text-anchor="middle" x="811.5" y="-710.3" font-family="Times New Roman,serif" font-size="14.00">1</text>
</g>
<!-- &#45;843882614&#45;&gt;2115092379 -->
<g id="edge32" class="edge">
<title>&#45;843882614&#45;&gt;2115092379</title>
<path fill="none" stroke="black" stroke-width="2.6" d="M582.21,-434.6C585.28,-390.46 593.38,-273.83 597.09,-220.42"/>
<polygon fill="black" stroke="black" stroke-width="2.6" points="600.59,-220.54 597.8,-210.32 593.61,-220.05 600.59,-220.54"/>
<text text-anchor="middle" x="604" y="-318.8" font-family="Times New Roman,serif" font-size="14.00">4557</text>
</g>
<!-- &#45;843882614&#45;&gt;&#45;2066256733 -->
<g id="edge33" class="edge">
<title>&#45;843882614&#45;&gt;&#45;2066256733</title>
<path fill="none" stroke="black" stroke-width="1" d="M568.86,-434.8C560.32,-422.7 548.74,-406.3 539.12,-392.67"/>
<polygon fill="black" stroke="black" stroke-width="1" points="541.75,-390.33 533.12,-384.18 536.03,-394.36 541.75,-390.33"/>
<text text-anchor="middle" x="557.5" y="-405.8" font-family="Times New Roman,serif" font-size="14.00">2</text>
</g>
<!-- &#45;843882614&#45;&gt;&#45;1077976502 -->
<g id="edge34" class="edge">
<title>&#45;843882614&#45;&gt;&#45;1077976502</title>
<path fill="none" stroke="black" d="M589.06,-471.32C597.67,-492.28 608.83,-528.44 599,-558 590.67,-583.04 483.66,-718.17 438.2,-774.9"/>
<polygon fill="black" stroke="black" points="435.24,-773 431.71,-782.99 440.7,-777.38 435.24,-773"/>
<text text-anchor="middle" x="568.5" y="-623.3" font-family="Times New Roman,serif" font-size="14.00">1</text>
</g>
<!-- &#45;843882614&#45;&gt;&#45;843882614 -->
<g id="edge35" class="edge">
<title>&#45;843882614&#45;&gt;&#45;843882614</title>
<path fill="none" stroke="black" stroke-width="1.09" d="M648.73,-460.22C659.3,-459.14 666.5,-456.73 666.5,-453 666.5,-450.61 663.54,-448.76 658.64,-447.46"/>
<polygon fill="black" stroke="black" stroke-width="1.09" points="659.18,-444 648.73,-445.78 658.01,-450.9 659.18,-444"/>
<text text-anchor="middle" x="677" y="-449.3" font-family="Times New Roman,serif" font-size="14.00">254</text>
</g>
<!-- &#45;843882614&#45;&gt;&#45;277961005 -->
<g id="edge36" class="edge">
<title>&#45;843882614&#45;&gt;&#45;277961005</title>
<path fill="none" stroke="black" stroke-width="1.05" d="M513.36,-460.51C462.4,-466.32 397.44,-475.93 374,-489 344.95,-505.2 338.14,-525.45 345,-558 348.02,-572.35 354.27,-587.35 360.29,-599.61"/>
<polygon fill="black" stroke="black" stroke-width="1.05" points="357.32,-601.48 365,-608.78 363.55,-598.29 357.32,-601.48"/>
<text text-anchor="middle" x="355.5" y="-536.3" font-family="Times New Roman,serif" font-size="14.00">154</text>
</g>
<!-- &#45;843882614&#45;&gt;&#45;1546287983 -->
<g id="edge37" class="edge">
<title>&#45;843882614&#45;&gt;&#45;1546287983</title>
<path fill="none" stroke="black" stroke-width="1" d="M648.91,-470.5C657.16,-475.2 664.58,-481.24 670,-489 718.11,-557.91 700.22,-602.16 664,-678 662.27,-681.61 660.01,-685.06 657.45,-688.28"/>
<polygon fill="black" stroke="black" stroke-width="1" points="654.77,-686.02 650.64,-695.78 659.95,-690.73 654.77,-686.02"/>
<text text-anchor="middle" x="701.5" y="-579.8" font-family="Times New Roman,serif" font-size="14.00">3</text>
</g>
<!-- &#45;86874891 -->
<g id="node11" class="node">
<title>&#45;86874891</title>
<polygon fill="#fefeff" stroke="black" points="589.5,-558 434.5,-558 434.5,-522 589.5,-522 589.5,-558"/>
<text text-anchor="middle" x="512" y="-536.3" font-family="Times New Roman,serif" font-size="14.00">Schedule intervention (5)</text>
</g>
<!-- &#45;86874891&#45;&gt;&#45;843882614 -->
<g id="edge38" class="edge">
<title>&#45;86874891&#45;&gt;&#45;843882614</title>
<path fill="none" stroke="black" stroke-width="1" d="M525.96,-521.8C535.88,-509.59 549.35,-492.99 560.48,-479.28"/>
<polygon fill="black" stroke="black" stroke-width="1" points="563.47,-481.15 567.06,-471.18 558.04,-476.73 563.47,-481.15"/>
<text text-anchor="middle" x="553.5" y="-492.8" font-family="Times New Roman,serif" font-size="14.00">4</text>
</g>
<!-- &#45;86874891&#45;&gt;&#45;277961005 -->
<g id="edge39" class="edge">
<title>&#45;86874891&#45;&gt;&#45;277961005</title>
<path fill="none" stroke="black" d="M492.35,-558.16C480.09,-568.4 463.7,-581.26 448,-591 440.36,-595.74 431.99,-600.29 423.72,-604.46"/>
<polygon fill="black" stroke="black" points="421.91,-601.44 414.47,-608.99 424.99,-607.73 421.91,-601.44"/>
<text text-anchor="middle" x="471.5" y="-579.8" font-family="Times New Roman,serif" font-size="14.00">1</text>
</g>
<!-- &#45;277961005&#45;&gt;&#45;1995962449 -->
<g id="edge40" class="edge">
<title>&#45;277961005&#45;&gt;&#45;1995962449</title>
<path fill="none" stroke="black" d="M355.95,-645.12C343.07,-657.84 326.86,-676.34 318,-696 228.61,-894.43 241.03,-867.2 272,-906 297.62,-938.11 401.01,-956.21 479.09,-965.53"/>
<polygon fill="black" stroke="black" points="479.11,-969.06 489.45,-966.74 479.92,-962.11 479.11,-969.06"/>
<text text-anchor="middle" x="282.5" y="-797.3" font-family="Times New Roman,serif" font-size="14.00">1</text>
</g>
<!-- &#45;277961005&#45;&gt;&#45;1388062580 -->
<g id="edge41" class="edge">
<title>&#45;277961005&#45;&gt;&#45;1388062580</title>
<path fill="none" stroke="black" stroke-width="1.02" d="M362.9,-645.07C359.18,-650.65 355.22,-656.97 352,-663 332.49,-699.46 325.96,-709.24 319,-750 311.25,-795.38 319.81,-809.29 337,-852 338.23,-855.06 339.73,-858.15 341.36,-861.17"/>
<polygon fill="black" stroke="black" stroke-width="1.02" points="338.4,-863.04 346.52,-869.85 344.43,-859.47 338.4,-863.04"/>
<text text-anchor="middle" x="326" y="-753.8" font-family="Times New Roman,serif" font-size="14.00">53</text>
</g>
<!-- &#45;277961005&#45;&gt;&#45;1077976502 -->
<g id="edge42" class="edge">
<title>&#45;277961005&#45;&gt;&#45;1077976502</title>
<path fill="none" stroke="black" stroke-width="1.02" d="M384.41,-645.07C387.18,-650.65 390,-656.97 392,-663 404.23,-699.92 411.35,-744.47 414.96,-772.52"/>
<polygon fill="black" stroke="black" stroke-width="1.02" points="411.52,-773.26 416.21,-782.76 418.47,-772.41 411.52,-773.26"/>
<text text-anchor="middle" x="415" y="-710.3" font-family="Times New Roman,serif" font-size="14.00">72</text>
</g>
<!-- &#45;277961005&#45;&gt;899515582 -->
<g id="edge43" class="edge">
<title>&#45;277961005&#45;&gt;899515582</title>
<path fill="none" stroke="black" d="M316.7,-608.91C299.59,-603.55 280.93,-597.36 264,-591 241.11,-582.4 216.17,-571.63 195.48,-562.29"/>
<polygon fill="black" stroke="black" points="196.85,-559.07 186.3,-558.12 193.95,-565.44 196.85,-559.07"/>
<text text-anchor="middle" x="267.5" y="-579.8" font-family="Times New Roman,serif" font-size="14.00">1</text>
</g>
<!-- &#45;277961005&#45;&gt;&#45;843882614 -->
<g id="edge44" class="edge">
<title>&#45;277961005&#45;&gt;&#45;843882614</title>
<path fill="none" stroke="black" stroke-width="2.25" d="M374.07,-608.68C373.81,-586.04 376.75,-546.41 398,-522 424.66,-491.38 466.44,-474.52 503.36,-465.26"/>
<polygon fill="black" stroke="black" stroke-width="2.25" points="504.19,-468.66 513.12,-462.95 502.58,-461.84 504.19,-468.66"/>
<text text-anchor="middle" x="412" y="-536.3" font-family="Times New Roman,serif" font-size="14.00">3563</text>
</g>
<!-- &#45;277961005&#45;&gt;&#45;86874891 -->
<g id="edge45" class="edge">
<title>&#45;277961005&#45;&gt;&#45;86874891</title>
<path fill="none" stroke="black" stroke-width="1" d="M395.01,-608.9C407.49,-598.68 424.14,-585.81 440,-576 447.56,-571.32 455.83,-566.8 463.99,-562.65"/>
<polygon fill="black" stroke="black" stroke-width="1" points="465.71,-565.7 473.11,-558.12 462.6,-559.43 465.71,-565.7"/>
<text text-anchor="middle" x="443.5" y="-579.8" font-family="Times New Roman,serif" font-size="14.00">5</text>
</g>
<!-- &#45;277961005&#45;&gt;&#45;277961005 -->
<g id="edge46" class="edge">
<title>&#45;277961005&#45;&gt;&#45;277961005</title>
<path fill="none" stroke="black" stroke-width="1.03" d="M461.08,-633.86C471.89,-632.65 479,-630.36 479,-627 479,-624.85 476.08,-623.13 471.14,-621.86"/>
<polygon fill="black" stroke="black" stroke-width="1.03" points="471.52,-618.38 461.08,-620.14 470.34,-625.28 471.52,-618.38"/>
<text text-anchor="middle" x="486" y="-623.3" font-family="Times New Roman,serif" font-size="14.00">99</text>
</g>
<!-- &#45;277961005&#45;&gt;&#45;1546287983 -->
<g id="edge47" class="edge">
<title>&#45;277961005&#45;&gt;&#45;1546287983</title>
<path fill="none" stroke="black" stroke-width="1.44" d="M461.27,-639.92C487.49,-645.19 515.97,-652.63 541,-663 552.27,-667.67 553.53,-671.73 564,-678 571.26,-682.35 579.1,-686.81 586.71,-691.03"/>
<polygon fill="black" stroke="black" stroke-width="1.44" points="585.04,-694.11 595.49,-695.86 588.41,-687.97 585.04,-694.11"/>
<text text-anchor="middle" x="578" y="-666.8" font-family="Times New Roman,serif" font-size="14.00">1264</text>
</g>
<!-- 1370425369&#45;&gt;2115092379 -->
<g id="edge48" class="edge">
<title>1370425369&#45;&gt;2115092379</title>
<path fill="none" stroke="black" d="M622.94,-123.18C618.79,-134.92 613.21,-150.73 608.48,-164.13"/>
<polygon fill="black" stroke="black" points="605.1,-163.2 605.07,-173.8 611.7,-165.53 605.1,-163.2"/>
<text text-anchor="middle" x="618.5" y="-144.8" font-family="Times New Roman,serif" font-size="14.00">1</text>
</g>
<!-- 1370425369&#45;&gt;&#45;666057909 -->
<g id="edge49" class="edge">
<title>1370425369&#45;&gt;&#45;666057909</title>
<path fill="none" stroke="black" d="M640.74,-86.8C648.99,-74.7 660.18,-58.3 669.49,-44.67"/>
<polygon fill="black" stroke="black" points="672.53,-46.41 675.28,-36.18 666.75,-42.46 672.53,-46.41"/>
<text text-anchor="middle" x="664.5" y="-57.8" font-family="Times New Roman,serif" font-size="14.00">1</text>
</g>
<!-- &#45;1546287983&#45;&gt;&#45;1995962449 -->
<g id="edge50" class="edge">
<title>&#45;1546287983&#45;&gt;&#45;1995962449</title>
<path fill="none" stroke="black" stroke-width="1" d="M640.89,-732.31C644.2,-737.7 647.3,-743.85 649,-750 661.17,-793.94 649.39,-807.85 638,-852 627.54,-892.52 625.22,-904.19 602,-939 599.73,-942.4 597.16,-945.81 594.49,-949.1"/>
<polygon fill="black" stroke="black" stroke-width="1" points="591.61,-947.09 587.77,-956.96 596.93,-951.64 591.61,-947.09"/>
<text text-anchor="middle" x="644.5" y="-840.8" font-family="Times New Roman,serif" font-size="14.00">2</text>
</g>
<!-- &#45;1546287983&#45;&gt;&#45;1388062580 -->
<g id="edge51" class="edge">
<title>&#45;1546287983&#45;&gt;&#45;1388062580</title>
<path fill="none" stroke="black" stroke-width="1" d="M626.23,-732.35C622.96,-755.39 613.84,-795.87 589,-819 567.91,-838.64 502.37,-856.92 446.62,-869.58"/>
<polygon fill="black" stroke="black" stroke-width="1" points="445.69,-866.2 436.7,-871.79 447.22,-873.03 445.69,-866.2"/>
<text text-anchor="middle" x="615.5" y="-797.3" font-family="Times New Roman,serif" font-size="14.00">2</text>
</g>
<!-- &#45;1546287983&#45;&gt;&#45;1077976502 -->
<g id="edge52" class="edge">
<title>&#45;1546287983&#45;&gt;&#45;1077976502</title>
<path fill="none" stroke="black" stroke-width="1" d="M586.15,-729.59C570.76,-735.39 553.36,-742.48 538,-750 526.36,-755.7 524.69,-759.4 513,-765 502.35,-770.1 490.75,-774.94 479.42,-779.29"/>
<polygon fill="black" stroke="black" stroke-width="1" points="478.13,-776.04 470,-782.83 480.6,-782.59 478.13,-776.04"/>
<text text-anchor="middle" x="541.5" y="-753.8" font-family="Times New Roman,serif" font-size="14.00">7</text>
</g>
<!-- &#45;1546287983&#45;&gt;&#45;843882614 -->
<g id="edge53" class="edge">
<title>&#45;1546287983&#45;&gt;&#45;843882614</title>
<path fill="none" stroke="black" stroke-width="1.27" d="M633.61,-695.71C645.3,-656.32 668.33,-558 632,-489 629.83,-484.88 626.93,-481.15 623.62,-477.8"/>
<polygon fill="black" stroke="black" stroke-width="1.27" points="625.66,-474.94 615.81,-471.06 621.09,-480.24 625.66,-474.94"/>
<text text-anchor="middle" x="661.5" y="-579.8" font-family="Times New Roman,serif" font-size="14.00">772</text>
</g>
<!-- &#45;1546287983&#45;&gt;&#45;277961005 -->
<g id="edge54" class="edge">
<title>&#45;1546287983&#45;&gt;&#45;277961005</title>
<path fill="none" stroke="black" stroke-width="1.2" d="M620.11,-695.87C614.04,-684.68 604.56,-670.76 592,-663 571.69,-650.46 519.41,-641.81 471.26,-636.26"/>
<polygon fill="black" stroke="black" stroke-width="1.2" points="471.38,-632.75 461.06,-635.12 470.61,-639.7 471.38,-632.75"/>
<text text-anchor="middle" x="617.5" y="-666.8" font-family="Times New Roman,serif" font-size="14.00">558</text>
</g>
<!-- &#45;1546287983&#45;&gt;&#45;1546287983 -->
<g id="edge55" class="edge">
<title>&#45;1546287983&#45;&gt;&#45;1546287983</title>
<path fill="none" stroke="black" stroke-width="1.04" d="M669.71,-721.75C679.91,-721.18 687.5,-718.59 687.5,-714 687.5,-711.13 684.53,-709.04 679.82,-707.74"/>
<polygon fill="black" stroke="black" stroke-width="1.04" points="680.11,-704.25 669.71,-706.25 679.09,-711.17 680.11,-704.25"/>
<text text-anchor="middle" x="698" y="-710.3" font-family="Times New Roman,serif" font-size="14.00">113</text>
</g>
</g>
</svg>
